<svg xmlns="http://www.w3.org/2000/svg" viewBox="0 0 813.38627 477.82027"><defs><style>.cls-1{fill:#bdbec0;}.cls-2{fill:#e6e7e9;}.cls-3{fill:#a8a9ad;}</style></defs><g id="Layer_2" data-name="Layer 2"><g id="Layer_1-2" data-name="Layer 1"><path class="cls-1" d="M.0001,475.94577C-.023,443.52939,3.77048,323.49563,94.6668,218.10364,206.0156,88.99749,360.9325,82.903,386.14055,82.33168c-16.51571-10.28109-24.91722-29.32749-21.17548-47.33335,4.04009-19.4418,22.0176-36.61281,43.59652-34.87717,22.977,1.84809,37.29687,24.84822,37.36844,44.84208.07772,21.723-16.68343,35.40327-19.07348,37.29061,27.49314,2.05567,196.9731,17.53509,306.18755,163.25332,69.84345,93.18783,78.9179,191.44356,80.34217,231.68421Q406.69313,476.56864.0001,475.94577Z"/><path class="cls-2" d="M387.0916,84.82289c-2.6366,2.25427-5.49028,2.5112-8.30264,3.16756L370.38059,89.967c-5.58642,1.37927-11.12192,2.91542-16.62515,4.50909-10.98613,3.28369-21.76736,7.09074-32.31979,11.32413-10.571,4.19342-20.79823,9.1189-30.82841,14.24515a333.20415,333.20415,0,0,0-28.95147,17.18,312.26083,312.26083,0,0,0-91.7295,93.30887,346.52628,346.52628,0,0,0-29.34552,57.68384c-8.026,20.05053-14.33414,40.92314-20.1182,62.60865a303.03786,303.03786,0,0,0-9.51039,61.34093c-1.14813,20.78193-.06041,41.29185,1.73815,63.88329H24.63879c1.65954-23.60758,4.12909-49.42621,9.42128-74.45012A375.6213,375.6213,0,0,1,57.134,328.413c9.64807-21.86708,20.2905-44.09729,32.94935-65.40337a397.51158,397.51158,0,0,1,43.43479-60.10716,347.41442,347.41442,0,0,1,116.39978-86.88476A354.97155,354.97155,0,0,1,283.19121,102.691c11.31018-3.72789,22.65944-7.15328,34.18156-9.7709,11.50459-2.65792,23.0726-4.8156,34.68059-6.403,5.81387-.74547,11.61948-1.4217,17.43481-1.93234l8.72148-.66719C381.1167,83.75706,384.00064,83.32682,387.0916,84.82289Z"/><path class="cls-3" d="M423.19064,82.49917a349.62633,349.62633,0,0,1,235.23964,128A421.48457,421.48457,0,0,1,699.25158,271.24c5.93972,10.63607,11.34636,21.41573,16.4744,32.06877l7.36756,15.70649,3.47553,7.47107,3.61243,8.40425a519.17926,519.17926,0,0,1,23.8644,70.63011c6.35824,24.072,10.90239,48.87627,14.59756,71.69047l-189.3439-1.18006c3.99677-19.0929,7.34422-36.25091,9.44819-53.88861a364.23882,364.23882,0,0,0,2.633-53.20357l-.22087-6.83961-.54168-7.72556-1.03411-14.5865c-.75663-9.45924-1.61924-18.68958-2.86909-27.74281a314.89252,314.89252,0,0,0-11.83689-53.26911,278.70194,278.70194,0,0,0-55.9008-98.15407c-25.94548-29.74148-59.0621-55.3197-96.83052-74.61516Z"/><path class="cls-2" d="M387.66175,85.05683a216.815,216.815,0,0,0-51.26407,27.34964c-15.73887,11.22242-29.13136,25.00148-40.91209,40.24735a392.69906,392.69906,0,0,0-31.63317,48.50588A509.13591,509.13591,0,0,0,206.4895,363.509a518.51652,518.51652,0,0,0-6.32708,113.78138l-40.93117.52985A554.80361,554.80361,0,0,1,175.551,357.001a532.03151,532.03151,0,0,1,42.76424-113.18208,525.04823,525.04823,0,0,1,30.51531-51.90146,407.63074,407.63074,0,0,1,36.73788-47.63467c13.48516-14.89514,28.96966-28.46818,46.22793-38.80622A222.81427,222.81427,0,0,1,386.52144,81.58Z"/><path class="cls-2" d="M377.11557,58.93012c-5.5308-5.75414-7.69507-14.42671-6.20961-22.31451A32.9335,32.9335,0,0,1,383.426,16.44593a34.61119,34.61119,0,0,1,23.36125-7.164,30.92745,30.92745,0,0,1,22.4695,12.16128l.11121.1484a5.7663,5.7663,0,0,1-9.22575,6.92c-.10016-.13355-.1991-.27938-.286-.4184a20.33415,20.33415,0,0,0-14.10043-9.441,26.24218,26.24218,0,0,0-18.085,3.78294,26.51963,26.51963,0,0,0-11.38835,15.33912,21.16429,21.16429,0,0,0,3.59613,18.75724,1.83072,1.83072,0,0,1-2.74056,2.42221Z"/></g></g></svg>